<svg height="100%" preserveAspectRatio="xMidYMid meet" viewBox="0 0 1000 1000" width="100%" xmlns="http://www.w3.org/2000/svg">
<path d="M1000,500 L999.9541,505.23572 L999.8174,510.46985 L999.58887,515.7007 L999.2693,520.927 L998.8584,526.1467 L998.3567,531.3585 L997.7639,536.5608 L997.0803,541.75195 L996.30664,546.9303 L995.4424,552.0945 L994.4883,557.2427 L993.44434,562.37354 L992.31104,567.48535 L991.0886,572.57666 L989.77783,577.64575 L988.3784,582.69116 L986.8916,587.71155 L985.3169,592.7051 L983.65576,597.6704 L981.9077,602.6061 L980.0742,607.5104 L978.1553,612.38184 L976.15137,617.21936 L974.0637,622.021 L971.89233,626.7855 L969.6382,631.5112 L967.302,636.19714 L964.8843,640.84143 L962.386,645.4429 L959.8076,650 L957.15015,654.51135 L954.41455,658.9758 L951.6011,663.39185 L948.7112,667.75793 L945.7456,672.073 L942.7051,676.33545 L939.5906,680.54456 L936.4033,684.6985 L933.1438,688.796 L929.81323,692.8362 L926.41284,696.8176 L922.94336,700.73926 L919.40625,704.5995 L915.80176,708.39746 L912.1321,712.1321 L908.39746,715.8019 L904.5996,719.4061 L900.73926,722.94336 L896.8176,726.41284 L892.8362,729.81323 L888.79614,733.1438 L884.6985,736.4033 L880.54443,739.5906 L876.33545,742.7052 L872.073,745.7456 L867.7578,748.7112 L863.39185,751.6012 L858.9758,754.4144 L854.5112,757.15015 L850,759.8076 L845.4429,762.386 L840.8413,764.8843 L836.19727,767.302 L831.5112,769.6382 L826.78564,771.89233 L822.021,774.0637 L817.21924,776.15137 L812.3821,778.15515 L807.51025,780.0741 L802.60596,781.9077 L797.6704,783.65564 L792.7051,785.3169 L787.7114,786.8915 L782.69116,788.3784 L777.64575,789.77783 L772.57666,791.0886 L767.48535,792.31104 L762.37354,793.44434 L757.2427,794.48816 L752.0945,795.4424 L746.9302,796.30664 L741.75195,797.0803 L736.5608,797.7639 L731.35864,798.3567 L726.1467,798.8584 L720.927,799.2693 L715.7009,799.58887 L710.47,799.81726 L705.23584,799.9542 L700,800 L694.76416,799.9542 L689.53,799.81726 L684.2993,799.58887 L679.073,799.2693 L673.8533,798.8584 L668.64136,798.3567 L663.43945,797.7639 L658.24805,797.0803 L653.0698,796.30664 L647.9055,795.4424 L642.7572,794.48816 L637.6266,793.44434 L632.51465,792.31104 L627.42334,791.0886 L622.35425,789.77783 L617.30884,788.3784 L612.28845,786.8915 L607.2948,785.3169 L602.3296,783.65564 L597.3939,781.9077 L592.4896,780.0741 L587.6179,778.15515 L582.78064,776.15137 L577.979,774.0637 L573.2145,771.89233 L568.4888,769.6382 L563.80286,767.302 L559.15857,764.8843 L554.5571,762.386 L550,759.8076 L545.48865,757.15015 L541.0242,754.4144 L536.6084,751.6012 L532.24207,748.7112 L527.927,745.7456 L523.66455,742.7052 L519.45544,739.5906 L515.3015,736.4033 L511.20398,733.1438 L507.16382,729.81323 L503.18237,726.41284 L499.26074,722.94336 L495.4005,719.4061 L491.60254,715.8019 L487.86792,712.1321 L484.19812,708.39746 L480.59387,704.5995 L477.05664,700.73926 L473.58716,696.8176 L470.18677,692.8362 L466.8562,688.79614 L463.59668,684.6985 L460.40942,680.54456 L457.2948,676.33545 L454.2544,672.073 L451.28882,667.75793 L448.3988,663.39185 L445.58557,658.9758 L442.84985,654.51135 L440.19238,650 L437.614,645.4429 L435.11572,640.84143 L432.698,636.19714 L430.36182,631.5112 L428.1078,626.7855 L425.93628,622.021 L423.84863,617.21936 L421.84485,612.3821 L419.9259,607.5104 L418.0923,602.6061 L416.34436,597.6704 L414.6831,592.7052 L413.10852,587.71155 L411.62158,582.69116 L410.22217,577.64575 L408.91138,572.57666 L407.68896,567.48535 L406.55566,562.3734 L405.51184,557.2428 L404.55762,552.0945 L403.6936,546.9303 L402.91968,541.75195 L402.23608,536.5608 L401.6433,531.3585 L401.14148,526.1467 L400.7307,520.927 L400.41125,515.7008 L400.18274,510.46985 L400.04578,505.23572 L400,500 L400.04578,494.76428 L400.18274,489.53027 L400.41125,484.2992 L400.7307,479.073 L401.14148,473.85327 L401.6433,468.64148 L402.23608,463.4392 L402.91968,458.24805 L403.6936,453.0697 L404.55762,447.90552 L405.51184,442.75732 L406.55566,437.62646 L407.68896,432.51465 L408.91138,427.42346 L410.22217,422.35425 L411.62158,417.30884 L413.10852,412.28845 L414.6831,407.29492 L416.34436,402.3296 L418.0923,397.39392 L419.9259,392.48962 L421.84485,387.61804 L423.84863,382.78064 L425.93628,377.979 L428.10767,373.21448 L430.36182,368.48877 L432.698,363.80286 L435.1156,359.15857 L437.614,354.55713 L440.19238,350 L442.84985,345.48865 L445.58557,341.02417 L448.3988,336.60828 L451.28882,332.24207 L454.2544,327.92712 L457.2948,323.66455 L460.40942,319.45544 L463.59668,315.30164 L466.8562,311.20386 L470.18677,307.16382 L473.58716,303.18237 L477.05664,299.26086 L480.59387,295.4005 L484.19812,291.60242 L487.86792,287.86804 L491.60254,284.198 L495.4005,280.59387 L499.26074,277.05652 L503.18237,273.58716 L507.16382,270.18665 L511.20398,266.8562 L515.3015,263.59668 L519.45544,260.40942 L523.6643,257.29492 L527.927,254.2544 L532.24207,251.28882 L536.60815,248.3988 L541.0242,245.58557 L545.4885,242.84985 L550,240.19238 L554.5571,237.61401 L559.15857,235.11572 L563.80286,232.698 L568.4888,230.36182 L573.2145,228.10767 L577.9789,225.93628 L582.78064,223.84863 L587.6179,221.84485 L592.4896,219.92578 L597.3939,218.09216 L602.3296,216.34448 L607.2948,214.6831 L612.28845,213.10864 L617.30884,211.62158 L622.35425,210.22217 L627.42334,208.91125 L632.51465,207.68896 L637.62646,206.55566 L642.7573,205.51184 L647.9055,204.55762 L653.0698,203.69348 L658.24805,202.91968 L663.4392,202.2362 L668.6416,201.64331 L673.8533,201.1416 L679.073,200.73071 L684.2991,200.41113 L689.53,200.18274 L694.76416,200.04565 L700,200 L705.23584,200.04565 L710.4697,200.18274 L715.7009,200.41113 L720.927,200.73071 L726.1467,201.1416 L731.35864,201.64331 L736.56055,202.23608 L741.75195,202.91968 L746.9302,203.69348 L752.0945,204.55762 L757.2427,205.51184 L762.37354,206.55566 L767.48535,207.68896 L772.57666,208.91125 L777.64575,210.22217 L782.69116,211.62158 L787.7114,213.10852 L792.7051,214.6831 L797.6704,216.34448 L802.60596,218.09216 L807.51025,219.9259 L812.38184,221.84485 L817.21924,223.84863 L822.021,225.93628 L826.78564,228.10767 L831.5112,230.36182 L836.19727,232.698 L840.8413,235.11572 L845.4429,237.61401 L850,240.19238 L854.5112,242.84985 L858.9758,245.58557 L863.39185,248.3988 L867.7578,251.28882 L872.07275,254.2544 L876.33545,257.29492 L880.54443,260.40942 L884.6985,263.59668 L888.7959,266.8562 L892.8362,270.18677 L896.8176,273.58704 L900.73926,277.05652 L904.5996,280.59387 L908.39746,284.198 L912.1321,287.86792 L915.80176,291.60242 L919.40625,295.4005 L922.94336,299.26086 L926.41284,303.18237 L929.81323,307.1637 L933.1438,311.20386 L936.4033,315.30164 L939.5906,319.45557 L942.7051,323.66443 L945.7456,327.927 L948.7112,332.24207 L951.6011,336.60828 L954.41455,341.02417 L957.15015,345.48853 L959.8076,349.99988 L962.386,354.55713 L964.8843,359.15857 L967.302,363.80286 L969.6382,368.48865 L971.8921,373.21448 L974.0637,377.979 L976.15137,382.78064 L978.1553,387.61804 L980.0742,392.48962 L981.9077,397.39392 L983.65576,402.3296 L985.3169,407.29492 L986.8916,412.28845 L988.3784,417.30872 L989.77783,422.35425 L991.08887,427.42346 L992.31104,432.51465 L993.44434,437.62646 L994.4883,442.75732 L995.4424,447.90552 L996.30664,453.0697 L997.0803,458.24805 L997.7639,463.4392 L998.3567,468.64148 L998.8584,473.85315 L999.2693,479.073 L999.58887,484.29932 L999.8174,489.53015 L999.9541,494.76416 L1000,500.00012 z" fill="none" stroke="black" stroke-width="1"/>
</svg>